<svg width="213" height="48" viewBox="0 0 213 48" fill="none" xmlns="http://www.w3.org/2000/svg">
<path d="M33.2 29.94C41.55 21.42 41.08 9.31999 33.2 1.63999C32.74 1.18999 32 1.18999 31.54 1.63999L19.87 13.31C18.49 14.69 18.49 16.92 19.87 18.3L31.52 29.95C31.98 30.41 32.73 30.41 33.19 29.95L33.2 29.94Z" fill="#244650"/>
<path d="M15.99 46.66H4.44C2.47 46.66 0.880005 45.07 0.880005 43.1V31.55C0.880005 30.49 2.16001 29.96 2.90001 30.71L16.82 44.63C17.57 45.38 17.04 46.65 15.98 46.65L15.99 46.66Z" fill="#244650"/>
<path d="M42.54 44.6601C43.29 45.4101 42.76 46.6801 41.7 46.6801H26.66C24.24 46.6801 21.91 45.7201 20.2 44.0001L3.56001 27.3601C1.85001 25.6501 0.880005 23.3201 0.880005 20.9001V5.8601C0.880005 4.8001 2.16001 4.2701 2.90001 5.0201L42.53 44.6501L42.54 44.6601Z" fill="#244650"/>
<path d="M54.85 1.28003H59.42V42.82H63.99V46.93H54.86V1.28003H54.85Z" fill="#244650"/>
<path d="M69.52 1.28003H75.91L80.3 46.93H75.74L74.88 34.72H70.54L69.68 46.93H65.11L69.5 1.28003H69.52ZM74.6 30.61L72.89 5.39003H72.55L70.84 30.61H74.61H74.6Z" fill="#244650"/>
<path d="M83.16 1.28003H88.3L93.26 30.38H93.72V1.28003H98V46.93H92.86L87.9 17.83H87.44V46.93H83.16V1.28003Z" fill="#244650"/>
<path d="M104.56 46.7899C103.84 46.3099 103.28 45.6399 102.88 44.7599C102.48 43.8899 102.28 42.8999 102.28 41.7899V7.54994C102.28 6.21994 102.57 5.02994 103.14 3.97994C103.71 2.92994 104.52 2.12994 105.57 1.54994C106.62 0.979942 107.8 0.689941 109.14 0.689941C110.48 0.689941 111.66 0.979942 112.71 1.54994C113.76 2.11994 114.56 2.92994 115.14 3.97994C115.71 5.02994 116 6.21994 116 7.54994V16.1099H111.43V7.08994C111.43 6.62994 111.33 6.22994 111.14 5.88994C110.95 5.54994 110.68 5.27994 110.34 5.08994C110 4.89994 109.6 4.79994 109.14 4.79994C108.68 4.79994 108.28 4.89994 107.94 5.08994C107.6 5.27994 107.33 5.54994 107.14 5.88994C106.95 6.22994 106.85 6.62994 106.85 7.08994V41.2099C106.85 41.6299 106.94 42.0099 107.14 42.3499C107.33 42.6899 107.6 42.9699 107.94 43.1799C108.28 43.3899 108.68 43.4899 109.14 43.4899C109.6 43.4899 110 43.3899 110.34 43.1799C110.68 42.9699 110.95 42.6899 111.14 42.3499C111.33 42.0099 111.43 41.6299 111.43 41.2099V27.6299H109.26V23.5199H115.99V46.9199H112.57L112 44.0699H111.66C111.35 45.1399 110.81 45.9699 110.03 46.5799C109.25 47.1899 108.29 47.4899 107.15 47.4899C106.16 47.4899 105.3 47.2499 104.58 46.7799L104.56 46.7899Z" fill="#244650"/>
<path d="M122.19 24.11L118.54 1.28003H123.22L126.02 21.99H126.48L129.28 1.28003H133.96L130.31 24.11L133.96 46.94H129.28L126.48 26.11H126.02L123.22 46.94H118.54L122.19 24.11Z" fill="#244650"/>
<path d="M136.8 1.28003H143.65C144.98 1.28003 146.17 1.57003 147.22 2.14003C148.27 2.71003 149.07 3.52003 149.65 4.57003C150.22 5.62003 150.51 6.81003 150.51 8.14003V24.12C150.51 25.45 150.22 26.64 149.65 27.69C149.08 28.74 148.27 29.54 147.22 30.12C146.17 30.69 144.98 30.98 143.65 30.98H141.37V46.96H136.8V1.31003V1.28003ZM144.84 26.56C145.18 26.37 145.45 26.1 145.64 25.76C145.83 25.42 145.93 25.02 145.93 24.56V7.67003C145.93 7.21003 145.83 6.81003 145.64 6.47003C145.45 6.13003 145.18 5.86003 144.84 5.67003C144.5 5.48003 144.1 5.38003 143.64 5.38003H141.36V26.84H143.64C144.1 26.84 144.5 26.75 144.84 26.55V26.56Z" fill="#244650"/>
<path d="M153.91 1.28003H160.76C162.09 1.28003 163.28 1.57003 164.33 2.14003C165.38 2.71003 166.18 3.52003 166.76 4.57003C167.33 5.62003 167.62 6.81003 167.62 8.14003V17.5C167.62 19.1 167.21 20.48 166.39 21.64C165.57 22.8 164.46 23.59 163.05 24.01V24.24C164.46 24.66 165.57 25.45 166.39 26.61C167.21 27.77 167.62 29.15 167.62 30.75V46.96H163.05V28.47C163.05 27.79 162.84 27.23 162.42 26.82C162 26.4 161.45 26.19 160.77 26.19H158.49V46.96H153.92V1.31003L153.91 1.28003ZM162.42 21.43C162.84 21.01 163.05 20.46 163.05 19.78V7.68003C163.05 7.00003 162.84 6.44003 162.42 6.03003C162 5.61003 161.45 5.40003 160.77 5.40003H158.49V22.06H160.77C161.45 22.06 162.01 21.85 162.42 21.43Z" fill="#244650"/>
<path d="M171.6 1.28003H180.73V5.39003H176.16V21.48H180.73V25.59H176.16V42.82H180.73V46.93H171.6V1.28003Z" fill="#244650"/>
<path d="M186.3 46.65C185.25 46.08 184.45 45.27 183.87 44.22C183.3 43.17 183.01 41.99 183.01 40.65V32.2H187.58V41.1C187.58 41.56 187.67 41.96 187.84 42.3C188.01 42.64 188.25 42.91 188.55 43.1C188.85 43.29 189.23 43.39 189.69 43.39C190.18 43.39 190.61 43.26 190.97 42.99C191.33 42.72 191.62 42.28 191.83 41.65C192.04 41.02 192.14 40.18 192.14 39.11C192.14 37.47 191.94 35.88 191.54 34.32C191.14 32.76 190.65 31.28 190.06 29.87C189.47 28.46 188.68 26.77 187.69 24.79C186.66 22.62 185.84 20.82 185.24 19.37C184.63 17.92 184.11 16.34 183.67 14.6C183.23 12.87 183.01 11.11 183.01 9.31996C183.01 7.41996 183.3 5.81996 183.87 4.52996C184.44 3.23996 185.24 2.27996 186.27 1.64996C187.3 1.01996 188.5 0.709961 189.86 0.709961C191.22 0.709961 192.38 0.999962 193.43 1.56996C194.48 2.13996 195.28 2.94996 195.86 3.99996C196.43 5.04996 196.72 6.23996 196.72 7.56996V14.87H192.16V7.10996C192.16 6.64996 192.07 6.24996 191.9 5.90996C191.73 5.56996 191.49 5.29996 191.19 5.10996C190.89 4.91996 190.51 4.81996 190.05 4.81996C189.56 4.81996 189.13 4.94996 188.77 5.21996C188.41 5.48996 188.12 5.92996 187.91 6.55996C187.7 7.18996 187.6 8.02996 187.6 9.09996C187.6 10.74 187.8 12.34 188.2 13.92C188.6 15.5 189.09 16.97 189.68 18.34C190.27 19.71 191.08 21.42 192.11 23.48C193.14 25.61 193.95 27.38 194.56 28.79C195.17 30.2 195.68 31.74 196.1 33.41C196.52 35.08 196.73 36.8 196.73 38.55C196.73 40.57 196.44 42.24 195.87 43.57C195.3 44.9 194.5 45.89 193.47 46.54C192.44 47.19 191.24 47.51 189.87 47.51C188.5 47.51 187.35 47.22 186.3 46.65Z" fill="#244650"/>
<path d="M202.27 46.65C201.22 46.08 200.42 45.27 199.84 44.22C199.27 43.17 198.98 41.99 198.98 40.65V32.2H203.55V41.1C203.55 41.56 203.64 41.96 203.81 42.3C203.98 42.64 204.22 42.91 204.52 43.1C204.82 43.29 205.2 43.39 205.66 43.39C206.15 43.39 206.58 43.26 206.94 42.99C207.3 42.72 207.59 42.28 207.8 41.65C208.01 41.02 208.11 40.18 208.11 39.11C208.11 37.47 207.91 35.88 207.51 34.32C207.11 32.76 206.62 31.28 206.03 29.87C205.44 28.46 204.65 26.77 203.66 24.79C202.63 22.62 201.81 20.82 201.21 19.37C200.6 17.92 200.08 16.34 199.64 14.6C199.2 12.87 198.98 11.11 198.98 9.31996C198.98 7.41996 199.27 5.81996 199.84 4.52996C200.41 3.23996 201.21 2.27996 202.24 1.64996C203.27 1.01996 204.47 0.709961 205.83 0.709961C207.19 0.709961 208.35 0.999962 209.4 1.56996C210.45 2.13996 211.25 2.94996 211.83 3.99996C212.4 5.04996 212.69 6.23996 212.69 7.56996V14.87H208.13V7.10996C208.13 6.64996 208.04 6.24996 207.87 5.90996C207.7 5.56996 207.46 5.29996 207.16 5.10996C206.86 4.91996 206.48 4.81996 206.02 4.81996C205.53 4.81996 205.1 4.94996 204.74 5.21996C204.38 5.48996 204.09 5.92996 203.88 6.55996C203.67 7.18996 203.57 8.02996 203.57 9.09996C203.57 10.74 203.77 12.34 204.17 13.92C204.57 15.5 205.06 16.97 205.65 18.34C206.24 19.71 207.05 21.42 208.08 23.48C209.11 25.61 209.92 27.38 210.53 28.79C211.14 30.2 211.65 31.74 212.07 33.41C212.49 35.08 212.7 36.8 212.7 38.55C212.7 40.57 212.41 42.24 211.84 43.57C211.27 44.9 210.47 45.89 209.44 46.54C208.41 47.19 207.21 47.51 205.84 47.51C204.47 47.51 203.32 47.22 202.27 46.65Z" fill="#244650"/>
</svg>
